{
    "asset" : {
        "generator" : "Khronos glTF Blender I/O v1.3.48",
        "version" : "2.0"
    },
    "scene" : 0,
    "scenes" : [
        {
            "name" : "Scene",
            "nodes" : [
                0,
                1,
                2,
                3,
                4,
                5,
                6,
                7,
                8
            ]
        }
    ],
    "nodes" : [
        {
            "name" : "Light",
            "rotation" : [
                0.16907575726509094,
                0.7558803558349609,
                -0.27217137813568115,
                0.570947527885437
            ],
            "translation" : [
                4.076245307922363,
                6.1739420890808105,
                -1.0054539442062378
            ]
        },
        {
            "name" : "Camera",
            "rotation" : [
                0.483536034822464,
                0.33687159419059753,
                -0.20870360732078552,
                0.7804827094078064
            ],
            "translation" : [
                7.358891487121582,
                5.228389263153076,
                6.925790786743164
            ]
        },
        {
            "mesh" : 0,
            "name" : "TankFree_Body"
        },
        {
            "mesh" : 1,
            "name" : "TankFree_Canon"
        },
        {
            "mesh" : 2,
            "name" : "TankFree_Tower"
        },
        {
            "mesh" : 3,
            "name" : "TankFree_Wheel_f_right"
        },
        {
            "mesh" : 4,
            "name" : "TankFree_Wheel_b_right"
        },
        {
            "mesh" : 5,
            "name" : "TankFree_Wheel_b_left"
        },
        {
            "mesh" : 6,
            "name" : "TankFree_Wheel_f_left"
        }
    ],
    "materials" : [
        {
            "doubleSided" : true,
            "emissiveFactor" : [
                0,
                0,
                0
            ],
            "name" : "01_Mat_Tank",
            "pbrMetallicRoughness" : {
                "baseColorTexture" : {
                    "index" : 0,
                    "texCoord" : 0
                },
                "metallicFactor" : 1,
                "roughnessFactor" : 0.5405206680297852
            }
        }
    ],
    "meshes" : [
        {
            "name" : "Mesh",
            "primitives" : [
                {
                    "attributes" : {
                        "POSITION" : 0,
                        "NORMAL" : 1,
                        "TEXCOORD_0" : 2
                    },
                    "indices" : 3,
                    "material" : 0
                }
            ]
        },
        {
            "name" : "Mesh.001",
            "primitives" : [
                {
                    "attributes" : {
                        "POSITION" : 4,
                        "NORMAL" : 5,
                        "TEXCOORD_0" : 6
                    },
                    "indices" : 7,
                    "material" : 0
                }
            ]
        },
        {
            "name" : "Mesh.002",
            "primitives" : [
                {
                    "attributes" : {
                        "POSITION" : 8,
                        "NORMAL" : 9,
                        "TEXCOORD_0" : 10
                    },
                    "indices" : 11,
                    "material" : 0
                }
            ]
        },
        {
            "name" : "Mesh.003",
            "primitives" : [
                {
                    "attributes" : {
                        "POSITION" : 12,
                        "NORMAL" : 13,
                        "TEXCOORD_0" : 14
                    },
                    "indices" : 15,
                    "material" : 0
                }
            ]
        },
        {
            "name" : "Mesh.004",
            "primitives" : [
                {
                    "attributes" : {
                        "POSITION" : 16,
                        "NORMAL" : 17,
                        "TEXCOORD_0" : 18
                    },
                    "indices" : 15,
                    "material" : 0
                }
            ]
        },
        {
            "name" : "Mesh.005",
            "primitives" : [
                {
                    "attributes" : {
                        "POSITION" : 19,
                        "NORMAL" : 20,
                        "TEXCOORD_0" : 21
                    },
                    "indices" : 15,
                    "material" : 0
                }
            ]
        },
        {
            "name" : "Mesh.006",
            "primitives" : [
                {
                    "attributes" : {
                        "POSITION" : 22,
                        "NORMAL" : 23,
                        "TEXCOORD_0" : 24
                    },
                    "indices" : 15,
                    "material" : 0
                }
            ]
        }
    ],
    "textures" : [
        {
            "source" : 0
        }
    ],
    "images" : [
        {
            "bufferView" : 4,
            "mimeType" : "image/png",
            "name" : "CTF_TankFree_Base_Color_G"
        }
    ],
    "accessors" : [
        {
            "bufferView" : 0,
            "componentType" : 5126,
            "count" : 1755,
            "max" : [
                0.8527723550796509,
                0.9411364793777466,
                0.862360954284668
            ],
            "min" : [
                -0.4028826951980591,
                0.20125159621238708,
                -0.8883964419364929
            ],
            "type" : "VEC3"
        },
        {
            "bufferView" : 1,
            "componentType" : 5126,
            "count" : 1755,
            "type" : "VEC3"
        },
        {
            "bufferView" : 2,
            "componentType" : 5126,
            "count" : 1755,
            "type" : "VEC2"
        },
        {
            "bufferView" : 3,
            "componentType" : 5123,
            "count" : 4962,
            "type" : "SCALAR"
        },
        {
            "bufferView" : 5,
            "componentType" : 5126,
            "count" : 202,
            "max" : [
                0.27797821164131165,
                1.0978180170059204,
                -0.4647029936313629
            ],
            "min" : [
                0.17190830409526825,
                0.9917479157447815,
                -1.0719281435012817
            ],
            "type" : "VEC3"
        },
        {
            "bufferView" : 6,
            "componentType" : 5126,
            "count" : 202,
            "type" : "VEC3"
        },
        {
            "bufferView" : 7,
            "componentType" : 5126,
            "count" : 202,
            "type" : "VEC2"
        },
        {
            "bufferView" : 8,
            "componentType" : 5123,
            "count" : 534,
            "type" : "SCALAR"
        },
        {
            "bufferView" : 9,
            "componentType" : 5126,
            "count" : 639,
            "max" : [
                0.6097288727760315,
                1.3791272640228271,
                0.44954344630241394
            ],
            "min" : [
                -0.13363505899906158,
                0.8583926558494568,
                -0.4764145016670227
            ],
            "type" : "VEC3"
        },
        {
            "bufferView" : 10,
            "componentType" : 5126,
            "count" : 639,
            "type" : "VEC3"
        },
        {
            "bufferView" : 11,
            "componentType" : 5126,
            "count" : 639,
            "type" : "VEC2"
        },
        {
            "bufferView" : 12,
            "componentType" : 5123,
            "count" : 1896,
            "type" : "SCALAR"
        },
        {
            "bufferView" : 13,
            "componentType" : 5126,
            "count" : 430,
            "max" : [
                0.8596240282058716,
                0.601300060749054,
                -0.11008644104003906
            ],
            "min" : [
                0.617770791053772,
                0.01463589072227478,
                -0.6918247938156128
            ],
            "type" : "VEC3"
        },
        {
            "bufferView" : 14,
            "componentType" : 5126,
            "count" : 430,
            "type" : "VEC3"
        },
        {
            "bufferView" : 15,
            "componentType" : 5126,
            "count" : 430,
            "type" : "VEC2"
        },
        {
            "bufferView" : 16,
            "componentType" : 5123,
            "count" : 1032,
            "type" : "SCALAR"
        },
        {
            "bufferView" : 17,
            "componentType" : 5126,
            "count" : 430,
            "max" : [
                0.8596237897872925,
                0.5988370776176453,
                0.6308062672615051
            ],
            "min" : [
                0.6177706718444824,
                0.017098695039749146,
                0.04414209723472595
            ],
            "type" : "VEC3"
        },
        {
            "bufferView" : 18,
            "componentType" : 5126,
            "count" : 430,
            "type" : "VEC3"
        },
        {
            "bufferView" : 19,
            "componentType" : 5126,
            "count" : 430,
            "type" : "VEC2"
        },
        {
            "bufferView" : 20,
            "componentType" : 5126,
            "count" : 430,
            "max" : [
                -0.1676984429359436,
                0.59883713722229,
                0.630806565284729
            ],
            "min" : [
                -0.4095519483089447,
                0.017098724842071533,
                0.044142186641693115
            ],
            "type" : "VEC3"
        },
        {
            "bufferView" : 21,
            "componentType" : 5126,
            "count" : 430,
            "type" : "VEC3"
        },
        {
            "bufferView" : 22,
            "componentType" : 5126,
            "count" : 430,
            "type" : "VEC2"
        },
        {
            "bufferView" : 23,
            "componentType" : 5126,
            "count" : 430,
            "max" : [
                -0.16769856214523315,
                0.6013001203536987,
                -0.11008647084236145
            ],
            "min" : [
                -0.4095518887042999,
                0.01463577151298523,
                -0.6918247938156128
            ],
            "type" : "VEC3"
        },
        {
            "bufferView" : 24,
            "componentType" : 5126,
            "count" : 430,
            "type" : "VEC3"
        },
        {
            "bufferView" : 25,
            "componentType" : 5126,
            "count" : 430,
            "type" : "VEC2"
        }
    ],
    "bufferViews" : [
        {
            "buffer" : 0,
            "byteLength" : 21060,
            "byteOffset" : 0
        },
        {
            "buffer" : 0,
            "byteLength" : 21060,
            "byteOffset" : 21060
        },
        {
            "buffer" : 0,
            "byteLength" : 14040,
            "byteOffset" : 42120
        },
        {
            "buffer" : 0,
            "byteLength" : 9924,
            "byteOffset" : 56160
        },
        {
            "buffer" : 0,
            "byteLength" : 114470,
            "byteOffset" : 66084
        },
        {
            "buffer" : 0,
            "byteLength" : 2424,
            "byteOffset" : 180556
        },
        {
            "buffer" : 0,
            "byteLength" : 2424,
            "byteOffset" : 182980
        },
        {
            "buffer" : 0,
            "byteLength" : 1616,
            "byteOffset" : 185404
        },
        {
            "buffer" : 0,
            "byteLength" : 1068,
            "byteOffset" : 187020
        },
        {
            "buffer" : 0,
            "byteLength" : 7668,
            "byteOffset" : 188088
        },
        {
            "buffer" : 0,
            "byteLength" : 7668,
            "byteOffset" : 195756
        },
        {
            "buffer" : 0,
            "byteLength" : 5112,
            "byteOffset" : 203424
        },
        {
            "buffer" : 0,
            "byteLength" : 3792,
            "byteOffset" : 208536
        },
        {
            "buffer" : 0,
            "byteLength" : 5160,
            "byteOffset" : 212328
        },
        {
            "buffer" : 0,
            "byteLength" : 5160,
            "byteOffset" : 217488
        },
        {
            "buffer" : 0,
            "byteLength" : 3440,
            "byteOffset" : 222648
        },
        {
            "buffer" : 0,
            "byteLength" : 2064,
            "byteOffset" : 226088
        },
        {
            "buffer" : 0,
            "byteLength" : 5160,
            "byteOffset" : 228152
        },
        {
            "buffer" : 0,
            "byteLength" : 5160,
            "byteOffset" : 233312
        },
        {
            "buffer" : 0,
            "byteLength" : 3440,
            "byteOffset" : 238472
        },
        {
            "buffer" : 0,
            "byteLength" : 5160,
            "byteOffset" : 241912
        },
        {
            "buffer" : 0,
            "byteLength" : 5160,
            "byteOffset" : 247072
        },
        {
            "buffer" : 0,
            "byteLength" : 3440,
            "byteOffset" : 252232
        },
        {
            "buffer" : 0,
            "byteLength" : 5160,
            "byteOffset" : 255672
        },
        {
            "buffer" : 0,
            "byteLength" : 5160,
            "byteOffset" : 260832
        },
        {
            "buffer" : 0,
            "byteLength" : 3440,
            "byteOffset" : 265992
        }
    ],
    "buffers" : [
        {
            "byteLength" : 269432,
            "uri" : "data:application/octet-stream;base64,"
        }
    ]
}
